<svg xmlns="http://www.w3.org/2000/svg" viewBox="0 0 32 32" fill="none">
  <defs>
    <linearGradient id="g" x1="0" y1="0" x2="32" y2="32" gradientUnits="userSpaceOnUse">
      <stop offset="0%" stop-color="#7c3aed"/>
      <stop offset="100%" stop-color="#06b6d4"/>
    </linearGradient>
  </defs>
  <rect width="32" height="32" rx="8" fill="url(#g)"/>
  <path d="M16 6 L24 10 L24 19 C24 23 20.5 26 16 27 C11.5 26 8 23 8 19 L8 10 Z" fill="white" fill-opacity="0.9"/>
  <path d="M16 9 L22 12 L22 18.5 C22 21.5 19.5 24 16 25 C12.5 24 10 21.5 10 18.5 L10 12 Z" fill="url(#g)" opacity="0.25"/>
  <circle cx="16" cy="16" r="3" fill="white" opacity="0.95"/>
  <circle cx="16" cy="16" r="1.2" fill="url(#g)"/>
  <g stroke="white" stroke-width="0.8" stroke-linecap="round" opacity="0.8">
    <line x1="16" y1="13" x2="16" y2="10.5"/>
    <line x1="14" y1="17.5" x2="12" y2="20"/>
    <line x1="18" y1="17.5" x2="20" y2="20"/>
  </g>
</svg>
